<?xml version="1.0" standalone="no"?>
<!DOCTYPE svg PUBLIC "-//W3C//DTD SVG 20010904//EN"
 "http://www.w3.org/TR/2001/REC-SVG-20010904/DTD/svg10.dtd">
<svg version="1.0" xmlns="http://www.w3.org/2000/svg"
 width="551.000000pt" height="551.000000pt" viewBox="0 0 551.000000 551.000000"
 preserveAspectRatio="xMidYMid meet">
<metadata>
Created by potrace 1.11, written by Peter Selinger 2001-2013
</metadata>
<g transform="translate(0.000000,551.000000) scale(0.100000,-0.100000)"
fill="#000000" stroke="none">
<path d="M2588 5505 c-2 -2 -64 -7 -138 -10 -74 -4 -151 -8 -170 -10 -19 -2
-73 -6 -118 -10 -46 -4 -91 -8 -100 -10 -10 -1 -46 -6 -82 -10 -36 -3 -78 -9
-95 -11 -16 -3 -46 -7 -66 -9 -20 -2 -78 -11 -130 -20 -52 -9 -107 -18 -124
-21 -16 -2 -55 -9 -85 -14 -30 -5 -72 -12 -94 -16 -21 -3 -48 -8 -60 -10 -11
-3 -34 -8 -51 -10 -39 -7 -233 -55 -265 -66 -61 -21 -121 -40 -132 -42 -47 -9
-267 -81 -473 -154 -61 -21 -115 -37 -122 -35 -6 2 -14 0 -17 -5 -5 -9 87 -8
146 2 64 10 142 26 182 37 23 6 50 13 61 14 11 2 65 12 120 23 55 11 132 23
170 27 39 4 81 8 95 10 14 1 54 5 90 9 36 3 76 8 90 11 14 3 43 7 65 10 22 3
51 7 65 10 51 9 152 20 280 30 36 3 95 7 132 10 232 20 400 24 1023 26 415 1
719 -5 772 -15 12 -3 66 -7 120 -10 55 -4 108 -8 119 -10 10 -2 57 -7 103 -11
47 -4 94 -9 105 -11 12 -2 41 -6 66 -9 25 -2 65 -7 90 -10 25 -3 59 -8 75 -10
202 -25 238 -30 355 -51 47 -9 94 -17 105 -19 11 -2 31 -6 45 -8 42 -9 283
-56 310 -61 14 -3 25 -5 25 -6 0 -2 35 -8 85 -15 25 -3 59 -8 75 -11 59 -12 4
23 -90 56 -407 143 -713 233 -935 275 -88 17 -110 21 -225 47 -27 6 -63 12
-80 14 -16 2 -41 5 -55 9 -14 3 -41 8 -60 11 -19 3 -46 7 -60 10 -44 8 -149
23 -219 29 -25 3 -62 7 -81 10 -19 2 -57 6 -85 9 -120 13 -162 18 -185 23 -29
6 -566 13 -572 8z"/>
<path d="M2455 5117 c-10 -5 -13 -35 -10 -135 4 -139 4 -140 28 -196 26 -59
47 -134 57 -206 5 -36 12 -76 15 -90 3 -14 7 -38 10 -55 2 -16 6 -46 9 -65 3
-19 8 -75 11 -125 3 -49 8 -103 10 -120 18 -117 23 -219 30 -625 5 -323 10
-563 21 -985 3 -121 5 -231 4 -245 -1 -14 -1 -29 -1 -35 0 -5 3 -120 5 -255 8
-356 17 -698 21 -750 20 -265 30 -424 40 -680 7 -162 15 -346 20 -415 1 -27 3
-68 4 -90 1 -26 4 -36 11 -29 5 5 12 91 15 189 2 99 7 207 9 240 3 33 8 98 11
145 3 47 8 117 11 155 10 150 20 327 29 505 2 52 7 282 10 510 14 1018 18
1212 30 1495 4 93 9 284 20 730 2 99 6 189 8 200 3 11 8 42 11 68 4 27 9 57
11 67 2 11 6 47 9 82 20 209 30 260 72 353 37 81 35 72 40 228 l4 137 -62 0
c-35 0 -161 1 -281 3 -120 1 -224 -1 -232 -6z"/>
</g>
</svg>
